<svg id="eac4bc82-a92c-449a-b63f-e3e23c38d700" xmlns="http://www.w3.org/2000/svg" viewBox="0 0 169 55.32">
  <defs>
    <style>
      .cls-1 {
        fill: #5e0d8b;
      }

      .cls-2 {
        fill: #fff;
      }
    </style>
  </defs>
  <title>logo_nyu</title>
  <path class="cls-1" d="M56,16.91h4L69.21,29V16.91h4.27V36.57H69.8l-9.52-12.5v12.5H56Z"/>
  <path class="cls-1" d="M83.19,28.81l-7.55-11.9H80.7l4.69,7.89,4.77-7.89h4.91L87.52,28.73v7.83H83.19Z"/>
  <path class="cls-1" d="M96.92,28.14V16.91h4.33V28c0,3.2,1.6,4.86,4.24,4.86s4.24-1.6,4.24-4.72V16.91H114V28c0,6-3.34,8.87-8.62,8.87S96.92,33.93,96.92,28.14Z"/>
  <rect class="cls-2" x="16.2" y="11.99" width="25.86" height="29.91"/>
  <path class="cls-1" d="M47,44.19H12.43V9.59H47v34.6Zm-18.5-4a.37.37,0,0,0,.68,0l1.21-9.59h-2.9l1,9.59h.01Zm2.92-10.28v-1.5h-5v1.45h5ZM30,27.7c6.33.23,6.78-5.54,6.81-7.7,0-.13-.06-.14-.09,0a6.06,6.06,0,0,1-3.29,3A6,6,0,0,0,30,27.64.06.06,0,0,0,30,27.7Zm-.7-.42c1-4.8,4.91-4.92,5.26-5.83.55-1.42-.45-4-.71-4.24a8.50009,8.50009,0,0,1-2,2.78c-.89.71-4.28,3.23-2.55,7.28h0Zm-.69.19C26.51,23,30.75,20,31.44,19.39a.3.3,0,0,0,.07-.27,10.66994,10.66994,0,0,0-1.08-4.06c0-.05-.07,0-.09,0-.36,1.41-2.29,3.5-2.68,4-3.27,3.89-2.53,6.26.89,8.5.05,0,.11,0,.08-.08h0Zm-1,.16c-3.55-2.12-3.19-5.14-1.72-7.36a.33.33,0,0,0,0-.21,8.49024,8.49024,0,0,0-.88-2.23c-.06-.09-.11-.08-.12,0a12.1,12.1,0,0,1-1.76,3.86c-1.12,1.86-1.12,5.89,4.43,6,.11,0,.12,0,.07-.05h0Z"/>
</svg>