<svg width="308" height="62" xmlns="http://www.w3.org/2000/svg" xmlns:xlink="http://www.w3.org/1999/xlink" overflow="hidden"><defs><clipPath id="clip0"><rect x="245" y="642" width="308" height="62"/></clipPath></defs><g clip-path="url(#clip0)" transform="translate(-245 -642)"><path d="M0 0C0-9.07904-7.36534-16.4399-16.4311-16.4399-25.5212-16.4399-32.8799-9.07904-32.8799 0-32.8799 9.08126-25.5212 16.4577-16.4311 16.4577-7.36534 16.4577 0 9.08126 0 0" fill="#A80C30" transform="matrix(1 0 0 -1.00649 289.274 658.565)"/><path d="M0 0C0-4.30866-3.49177-7.80043-7.79821-7.80043-12.1002-7.80043-15.5986-4.30866-15.5986 0-15.5986 4.30866-12.1002 7.79599-7.79821 7.79599-3.49177 7.79599 0 4.30866 0 0" fill="#A80C30" transform="matrix(1 0 0 -1.00649 260.599 682.724)"/><path d="M0 0C0-2.24867-1.83579-4.06892-4.0778-4.06892-6.32425-4.06892-8.15116-2.24867-8.15116 0-8.15116 2.25089-6.32425 4.07336-4.0778 4.07336-1.83579 4.07336 0 2.25089 0 0" fill="#A80C30" transform="matrix(1 0 0 -1.00649 276.92 699.539)"/><path d="M0 0C0 3.06556-0.177585 3.15436-2.08663 3.55392L-2.75257 3.68711C-3.06556 3.90909-3.01895 4.66383-2.66378 4.79702-1.10991 4.70823 0.266378 4.66383 1.68706 4.66383 3.10774 4.66383 4.48624 4.70823 6.12891 4.79702 6.52625 4.66383 6.57287 3.90909 6.17108 3.68711L5.28316 3.55392C3.55392 3.28533 3.37634 3.06556 3.37634 0L3.37634-2.48619C3.37634-3.37412 3.37634-3.90687 3.5961-4.04006 3.8203-4.17325 4.48624-3.99567 4.7948-3.77368 6.30649-2.70817 9.8138 1.24532 10.169 1.64266 11.1013 2.71039 11.1901 3.33194 10.5241 3.46513L9.54742 3.68711C9.14785 3.8647 9.19225 4.70823 9.63621 4.79702 10.8793 4.70823 12.1668 4.66383 13.5875 4.66383 14.8328 4.66383 15.8539 4.70823 17.319 4.79702 17.7163 4.66383 17.8051 3.90909 17.4078 3.68711 16.6064 3.50953 15.2301 3.28533 14.3866 2.84136 13.2767 2.26643 12.2112 1.37628 10.2578-0.488359L8.21331-2.4418C7.32761-3.32972 7.36978-3.46291 8.03795-4.26204L13.5875-10.9237C15.188-12.8327 15.8539-13.4543 17.8051-13.5875L18.4289-13.6319C18.7841-13.8983 18.6953-14.5664 18.3401-14.7418 16.9638-14.653 15.9427-14.6086 13.9871-14.6086 12.522-14.6086 11.1013-14.6086 9.63621-14.7418 9.19225-14.5664 9.14785-13.8983 9.45863-13.6319L10.0802-13.5431C11.1013-13.4099 11.2789-13.1435 10.6129-12.3444L6.61505-7.50297C6.25988-7.06123 4.97238-5.14997 4.12885-5.14997 3.37634-5.14997 3.37634-5.59615 3.37634-6.83703L3.37634-9.94477C3.37634-13.0103 3.55392-13.1857 5.46074-13.4987L6.30649-13.6319C6.61505-13.8539 6.57287-14.6086 6.2177-14.7418 4.52842-14.653 3.06334-14.6086 1.68706-14.6086 0.266378-14.6086-1.10991-14.653-2.53281-14.7418-2.88798-14.6086-2.93016-13.8539-2.6216-13.6319L-2.08663-13.4987C-0.224201-13.0547 2.46448e-16-13.0103 2.46448e-16-9.94477Z" fill="#656263" transform="matrix(1 0 0 -1.00649 304.783 656.172)"/><path d="M0 0C1.1543-1.06551 2.66378-1.77807 4.57282-1.77807 7.94694-1.77807 11.2789 0.530536 11.2789 6.61505 11.2789 8.96805 10.7461 11.3233 9.50081 13.0991ZM8.52631 14.3422C7.41418 15.4521 5.90471 16.1625 4.04006 16.1625 0.843529 16.1625-2.75257 13.9871-2.75257 7.72495-2.75257 5.46074-2.22203 3.06334-0.976718 1.2431ZM11.1901 15.4521C13.8095 13.5875 15.1414 10.5685 15.1414 7.28099 15.1414 1.28749 10.6107-3.06556 4.35084-3.06556 2.1732-3.06556 0.264158-2.6216-1.28749-1.77807L-2.97677-4.12885C-3.68711-4.04006-4.04228-3.73151-4.12885-3.15436L-2.5772-0.976718C-5.19659 0.885706-6.61727 3.77368-6.61727 7.01461-6.61727 12.9215-2.08663 17.45 4.35084 17.45 6.57065 17.45 8.43751 17.006 9.90259 16.2513L11.4565 18.4289C12.0758 18.4289 12.522 18.0737 12.6108 17.45Z" fill="#656263" transform="matrix(1 0 0 -1.00649 333.15 668.417)"/><path d="M0 0C0-2.66378 0.577152-3.46291 3.32972-3.46291 5.54954-3.46291 7.63616-2.4418 7.63616 0.490579 7.63616 3.99789 4.97238 5.0634 2.08441 5.0634 0.0887926 5.0634 0 4.88581 0 4.30644ZM0 7.10563C0 6.39529 0.0887926 6.35089 1.50947 6.35089 4.30644 6.35089 6.21548 7.01683 6.21548 9.8138 6.21548 12.4776 4.21765 13.5009 1.95344 13.5009 0.0887926 13.5009 0 13.0991 0 12.3022ZM-3.37634 9.46085C-3.37634 12.3466-3.42073 13.0569-4.66383 13.2345L-6.04011 13.4121C-6.43968 13.5453-6.39529 14.3866-5.99572 14.522-3.7759 14.6996-1.15652 14.7884 1.42068 14.7884 3.5961 14.7884 5.41635 14.744 7.06123 14.1202 8.65728 13.5453 9.85598 12.3022 9.85598 10.2156 9.85598 8.30433 8.56848 7.10563 6.30427 6.30649 6.12891 5.99572 6.43746 5.95132 7.4164 5.72934 9.01467 5.37417 11.3677 3.95127 11.3677 0.887926 11.3677-1.50947 10.169-2.88576 8.43751-3.72929 6.74824-4.52842 4.48624-4.7504 2.3974-4.7504 1.50947-4.7504 0.0443963-4.61721-1.55387-4.61721-2.97677-4.61721-4.48624-4.66161-6.2177-4.7504-6.57287-4.61721-6.61505-3.86248-6.30649-3.6405L-5.46296-3.50731C-3.55392-3.19431-3.37634-3.01895-3.37634 0.0466161Z" fill="#656263" transform="matrix(1 0 0 -1.00649 361.559 666.228)"/><path d="M0 0C0 3.06556-0.177585 3.19653-1.86464 3.55392L-2.48619 3.68711C-2.79919 3.8647-2.75257 4.61943-2.3974 4.79702-1.10991 4.70823 0.266378 4.66383 1.73146 4.66383L8.03795 4.66383C9.99138 4.66383 11.7672 4.70823 12.1668 4.79702 12.2112 4.26426 12.4332 2.17542 12.6552 0.266378 12.4776-0.0887926 11.7672-0.133189 11.5009 0.177585 11.2345 1.33411 10.9681 1.90904 10.7017 2.31083 9.99138 3.37634 7.99355 3.37634 6.92582 3.37634L4.97238 3.37634C3.41851 3.37634 3.37634 3.33194 3.37634 1.95566L3.37634-2.97455C3.37634-3.77368 3.37634-3.86248 4.21765-3.86248L6.30649-3.86248C8.65728-3.86248 8.88148-3.50731 9.23665-2.1732L9.45863-1.33189C9.67839-1.02111 10.3466-1.06329 10.5685-1.42068 10.4797-2.70817 10.4797-3.50731 10.4797-4.52842 10.4797-5.63833 10.4797-6.43746 10.5685-7.72495 10.3466-8.08234 9.67839-8.12452 9.45863-7.81597L9.23665-6.97244C8.88148-5.63833 8.65728-5.28316 6.30649-5.28316L4.21765-5.28316C3.37634-5.28316 3.37634-5.41635 3.37634-6.30427L3.37634-9.50081C3.37634-10.8349 3.46513-12.2112 3.86248-12.6996 4.26204-13.1435 5.06118-13.3211 7.59398-13.3211 10.4353-13.3211 12.078-13.1857 13.3655-9.63621 13.6763-9.32322 14.3866-9.41201 14.5198-9.8138 14.2978-11.6784 13.6763-13.8983 13.1879-14.7418 10.391-14.653 8.03795-14.6086 5.63833-14.6086L1.73146-14.6086C0.310774-14.6086-1.06551-14.653-3.19653-14.7418-3.55392-14.6086-3.5961-13.8539-3.28533-13.6319L-2.08663-13.4987C-0.177585-13.2745 0-13.0103 0-9.94477Z" fill="#656263" transform="matrix(1 0 0 -1.00649 383.086 656.172)"/><path d="M0 0C0 4.43963-0.264158 5.59615-1.90682 5.72712L-3.32972 5.86253C-3.6405 6.12669-3.5961 6.74824-3.24093 6.97244-1.59827 6.88364-0.577152 6.83703 0.710341 6.83703 1.99783 6.83703 2.97677 6.88364 4.39523 6.97244 4.75262 6.74824 4.75262 6.08229 4.44185 5.86253L3.10774 5.72712C1.95566 5.59615 1.60049 4.39523 1.60049 0L1.60049-7.4608C1.60049-8.34872 1.60049-11.947 1.73146-12.613 1.60049-12.8794 1.20092-13.0991 0.799133-13.0103 0.312994-12.391-0.577152-11.4565-3.32972-8.48191L-10.078-1.28749C-11.7672 0.488359-12.9193 1.64266-13.4987 2.13102-13.6763 2.13102-13.6763 1.64266-13.6763 0.266378L-13.6763-5.59615C-13.6763-10.0358-13.4099-11.1901-11.7672-11.3255L-10.3443-11.4565C-9.98916-11.7228-10.078-12.3466-10.4331-12.5664-12.0758-12.4776-13.0969-12.4354-14.3844-12.4354-15.6741-12.4354-16.5176-12.4776-18.0737-12.5664-18.4289-12.391-18.4289-11.6807-18.1159-11.4565L-16.7862-11.3255C-15.6297-11.1901-15.2745-9.99138-15.2745-5.59615L-15.2745 2.353C-15.2745 3.81808-15.3189 4.43963-16.2069 5.10557-16.562 5.37195-17.4056 5.63833-17.8495 5.72712L-18.5177 5.86253C-18.8262 6.12669-18.8262 6.79485-18.4289 6.97244-16.7396 6.83703-15.5409 6.83703-14.6086 6.83703-13.9871 6.83703-13.3655 6.88364-12.8327 6.97244-11.9448 5.28316-10.3022 3.37412-8.47969 1.50947L-4.30422-2.79919C-3.32972-3.7759-0.754737-6.57287-0.264158-6.92804 0-6.83925 0-6.2177 0-5.15219Z" fill="#656263" transform="matrix(1 0 0 -1.00649 421.799 658.361)"/><path d="M0 0C1.4229 0 1.60049 0 1.60049 1.15652L1.60049 3.86248C1.60049 6.92804 1.4229 7.10563-0.488359 7.4164L-1.33189 7.54959C-1.64266 7.77157-1.59827 8.52631-1.2431 8.6595 0.490579 8.5707 1.86686 8.52631 3.28533 8.52631 4.70823 8.52631 6.08451 8.5707 7.81597 8.6595 8.17114 8.52631 8.21553 7.77157 7.90698 7.54959L7.06123 7.4164C5.15219 7.10563 4.9746 6.92804 4.9746 3.86248L4.9746-6.08229C4.9746-9.14785 5.15219-9.36984 7.06123-9.63621L8.08456-9.76718C8.39312-9.99138 8.34872-10.7461 7.99577-10.8771 6.12891-10.7883 4.66383-10.7461 3.28533-10.7461 1.86686-10.7461 0.490579-10.7883-1.2431-10.8771-1.59827-10.7461-1.64266-9.99138-1.33189-9.76718L-0.488359-9.63621C1.4229-9.32322 1.60049-9.14785 1.60049-6.08229L1.60049-2.57498C1.60049-1.46508 1.51169-1.42068 -2.46448e-16-1.42068L-7.81597-1.42068C-9.32322-1.42068-9.41201-1.46508-9.41201-2.57498L-9.41201-6.08229C-9.41201-9.14785-9.23443-9.41201-7.32761-9.63621L-6.12669-9.76718C-5.81591-9.99138-5.86253-10.7461-6.21548-10.8771-8.25993-10.7883-9.72501-10.7461-11.1013-10.7461-12.522-10.7461-13.8983-10.7883-15.2745-10.8771-15.6297-10.7461-15.6763-9.99138-15.3633-9.76718L-14.875-9.63621C-13.0103-9.14785-12.7884-9.14785-12.7884-6.08229L-12.7884 3.86248C-12.7884 6.92804-12.9659 7.15002-14.875 7.4164L-15.8961 7.54959C-16.2069 7.77157-16.1625 8.52631-15.8073 8.6595-13.8983 8.5707-12.522 8.52631-11.1013 8.52631-9.67839 8.52631-8.30211 8.5707-6.74824 8.6595-6.39307 8.52631-6.34867 7.77157-6.65944 7.54959L-7.32761 7.4164C-9.19225 7.06123-9.41201 6.92804-9.41201 3.86248L-9.41201 1.15652C-9.41201 0-9.23443 0-7.81597 0Z" fill="#656263" transform="matrix(1 0 0 -1.00649 448.563 660.06)"/><path d="M0 0C1.15652 0 1.28749 0.0887926 0.799133 1.37628L-0.577152 5.14997C-0.932322 6.17108-1.10991 6.52625-1.2431 6.74824L-1.33189 6.74824C-1.46508 6.57065-1.64266 6.17108-2.04223 5.23876L-3.6405 1.28749C-4.12885 0.0887926-4.04006 0-3.06334 0ZM-3.50731-1.4229C-4.52842-1.4229-4.66383-1.46508-5.019-2.48841L-6.04011-5.32977C-6.52625-6.75045-6.39529-6.92804-5.54954-7.10563L-4.35084-7.32761C-3.99567-7.54959-4.04006-8.34872-4.48624-8.43751-5.59615-8.34872-6.74824-8.30433-7.99355-8.30433-9.23665-8.30433-10.3022-8.39312-11.1013-8.43751-11.5009-8.26215-11.5009-7.54959-11.1901-7.32761L-10.169-7.10563C-8.79268-6.79707-8.30211-6.30649-7.4164-4.17547L-3.15214 6.03789C-2.3974 7.85814-2.08663 8.92587-1.99783 9.76718-1.1987 10.0802-0.35517 10.9237-0.133189 11.4565 0.224201 11.5897 0.490579 11.5009 0.579372 11.2345 0.754737 10.7883 1.46508 8.47969 2.48619 5.77374L6.48408-4.84141C7.01683-6.30649 7.4164-6.88364 9.01688-7.19442L9.72501-7.32761C10.1268-7.54959 10.0358-8.34872 9.59182-8.43751 8.43751-8.34872 7.4164-8.30433 5.90693-8.30433 4.30644-8.30433 3.01895-8.34872 1.90904-8.43751 1.46508-8.30433 1.4229-7.50519 1.82025-7.32761L2.71039-7.19442C3.86248-7.01683 3.8203-6.75045 3.28533-5.37417L2.21981-2.48841C1.86686-1.46508 1.73146-1.4229 0.710341-1.4229Z" fill="#656263" transform="matrix(1 0 0 -1.00649 472.487 662.517)"/><path d="M0 0C-1.33189 2.93016-1.50947 3.15436-2.57498 3.42073L-4.04006 3.7759C-4.30644 4.04006-4.35084 4.66383-3.99567 4.88581-2.84136 4.79702-1.37628 4.75262 4.92899e-16 4.75262 1.60049 4.75262 2.88798 4.79702 4.30644 4.88581 4.66383 4.70823 4.70823 3.99789 4.30644 3.7759L3.37634 3.64272C2.21981 3.46513 2.21981 2.88798 3.19653 0.710341L5.37417-4.21765C6.48408-6.74824 7.23881-8.3909 7.90476-9.85598 8.79268-7.99355 9.54742-6.12669 10.3932-4.26204 11.3255-2.21981 12.5664 0.845749 13.0103 2.13324 13.3211 3.06556 13.2767 3.37634 11.9448 3.64272L11.2367 3.7759C10.8349 4.04006 10.9681 4.61943 11.3255 4.88581 12.613 4.79702 13.7651 4.75262 14.9638 4.75262 16.3867 4.75262 17.4078 4.79702 18.1181 4.88581 18.5621 4.70823 18.6509 3.99789 18.3401 3.7759L17.097 3.50953C15.7651 3.24315 15.4965 2.84136 14.0781-0.177585L10.7017-7.41418C9.36984-10.2578 8.08234-13.4987 7.54959-14.9638 7.4164-15.097 7.23881-15.1414 7.01683-15.1414 6.83925-15.1414 6.66166-15.097 6.48408-14.9638 6.08451-13.8095 5.59615-12.3888 5.019-11.1457Z" fill="#656263" transform="matrix(1 0 0 -1.00649 486.688 656.262)"/><path d="M0 0C0 4.43963-0.264158 5.59615-1.90682 5.72712L-3.32972 5.86253C-3.6405 6.12669-3.5961 6.74824-3.24093 6.97244-1.59827 6.88364-0.577152 6.83703 0.710341 6.83703 1.99783 6.83703 2.97677 6.88364 4.39523 6.97244 4.75262 6.74824 4.75262 6.08229 4.44185 5.86253L3.10774 5.72712C1.95566 5.59615 1.60049 4.39523 1.60049 0L1.60049-7.4608C1.60049-8.34872 1.60049-11.947 1.73146-12.613 1.60049-12.8794 1.20092-13.0991 0.799133-13.0103 0.312994-12.391-0.577152-11.4565-3.32972-8.48191L-10.078-1.28749C-11.7672 0.488359-12.9193 1.64266-13.4987 2.13102-13.6763 2.13102-13.6763 1.64266-13.6763 0.266378L-13.6763-5.59615C-13.6763-10.0358-13.4099-11.1901-11.7672-11.3255L-10.3443-11.4565C-9.99138-11.7228-10.078-12.3466-10.4331-12.5664-12.0758-12.4776-13.0969-12.4354-14.3844-12.4354-15.6763-12.4354-16.5176-12.4776-18.0737-12.5664-18.4289-12.391-18.4289-11.6807-18.1159-11.4565L-16.7862-11.3255C-15.6297-11.1901-15.2745-9.99138-15.2745-5.59615L-15.2745 2.353C-15.2745 3.81808-15.3189 4.43963-16.2069 5.10557-16.562 5.37195-17.4056 5.63833-17.8495 5.72712L-18.5155 5.86253C-18.8262 6.12669-18.8262 6.79485-18.4289 6.97244-16.7396 6.83703-15.5409 6.83703-14.6086 6.83703-13.9871 6.83703-13.3655 6.88364-12.8305 6.97244-11.9448 5.28316-10.3022 3.37412-8.47969 1.50947L-4.30644-2.79919C-3.32972-3.7759-0.754737-6.57287-0.264158-6.92804 0-6.83925 0-6.2177 0-5.15219Z" fill="#656263" transform="matrix(1 0 0 -1.00649 527.887 658.361)"/><path d="M0 0C-2.13102 1.10991-3.95127 2.84136-3.95127 5.32755-3.95127 8.56848-1.46508 10.8349 3.01895 10.8349 4.57504 10.8349 5.64055 10.4353 7.15002 10.169 7.50519 9.41423 7.81597 7.72495 7.77157 5.81591 7.63616 5.46074 6.83925 5.41635 6.61505 5.72712 6.25988 7.28099 5.10779 9.54742 2.48619 9.54742-0.133189 9.54742-1.10991 8.03573-1.10991 6.52625-1.10991 4.93021 0.0887926 3.95127 1.86464 3.01895L4.61943 1.59827C6.2177 0.799133 8.21553-1.06551 8.21553-4.04006 8.21553-7.50519 5.37417-9.68061 0.976718-9.68061-1.73146-9.68061-3.50731-8.74829-4.12885-8.30433-4.52842-7.68278-5.06118-6.08451-5.06118-3.73151-4.88359-3.28533-4.21765-3.24315-3.90687-3.64272-3.55392-5.23876-1.59827-8.39312 1.37628-8.39312 3.64272-8.39312 5.10779-7.23881 5.10779-5.19659 5.10779-3.77368 4.53064-2.30861 1.99783-1.02111Z" fill="#656263" transform="matrix(1 0 0 -1.00649 543.908 661.758)"/><path d="M0 0C0 3.06556-0.221981 3.15436-2.08441 3.55392L-2.70817 3.68711C-3.01673 3.90909-2.97455 4.66383-2.61938 4.79702-1.10991 4.70823 0.266378 4.66383 1.68928 4.66383 3.10774 4.66383 4.48624 4.70823 6.2177 4.79702 6.57287 4.66383 6.61727 3.90909 6.30649 3.68711L5.46296 3.55392C3.55392 3.24315 3.37634 3.06556 3.37634 0L3.37634-6.25988C3.37634-10.6995 4.84141-13.7207 9.14785-13.7207 13.1457-13.7207 14.8772-10.6995 14.8772-6.30427L14.8772-2.1732C14.8772 2.26643 14.6108 3.28533 12.7018 3.55392L11.7695 3.68711C11.4565 3.95127 11.5031 4.57504 11.8582 4.79702 13.2767 4.70823 14.2978 4.66383 15.5875 4.66383 16.8772 4.66383 17.8517 4.70823 19.2746 4.79702 19.6298 4.57504 19.6298 3.90909 19.3168 3.68711L17.9872 3.55392C16.8306 3.42073 16.4755 2.22203 16.4755-2.1732L16.4755-6.57065C16.4755-12.2556 13.8561-15.2301 8.21553-15.2301 5.37417-15.2301 3.24315-14.653 1.90904-13.3655 0.579372-12.0336 0-9.99138 0-7.10341Z" fill="#656263" transform="matrix(1 0 0 -1.00649 305.357 686.136)"/><path d="M0 0C0 4.43963-0.264158 5.59615-1.90682 5.72712L-3.32972 5.86253C-3.6405 6.12669-3.5961 6.74824-3.24093 6.97244-1.59827 6.88364-0.577152 6.83703 0.710341 6.83703 1.99783 6.83703 2.97677 6.88364 4.39523 6.97244 4.75262 6.74824 4.75262 6.08229 4.44185 5.86253L3.10774 5.72712C1.95566 5.59615 1.60049 4.39523 1.60049 0L1.60049-7.4608C1.60049-8.34872 1.60049-11.947 1.73146-12.613 1.60049-12.8794 1.20092-13.0991 0.799133-13.0103 0.312994-12.391-0.577152-11.4565-3.32972-8.48191L-10.078-1.28749C-11.7672 0.488359-12.9193 1.64266-13.4987 2.13102-13.6763 2.13102-13.6763 1.64266-13.6763 0.266378L-13.6763-5.59615C-13.6763-10.0358-13.4099-11.1901-11.7672-11.3255L-10.3443-11.4565C-9.99138-11.7228-10.078-12.3466-10.4331-12.5664-12.0758-12.4776-13.0969-12.4354-14.3844-12.4354-15.6763-12.4354-16.5176-12.4776-18.0737-12.5664-18.4289-12.391-18.4289-11.6807-18.1159-11.4565L-16.7862-11.3255C-15.6297-11.1901-15.2745-9.99138-15.2745-5.59615L-15.2745 2.353C-15.2745 3.81808-15.3189 4.43963-16.2069 5.10557-16.562 5.37195-17.4056 5.63833-17.8495 5.72712L-18.5155 5.86253C-18.8262 6.12669-18.8262 6.79485-18.4289 6.97244-16.7396 6.83703-15.5409 6.83703-14.6086 6.83703-13.9871 6.83703-13.3655 6.88364-12.8305 6.97244-11.9448 5.28316-10.3022 3.37412-8.47969 1.50947L-4.30644-2.79919C-3.32972-3.7759-0.754737-6.57287-0.264158-6.92804 0-6.83925 0-6.2177 0-5.15219Z" fill="#656263" transform="matrix(1 0 0 -1.00649 348.997 688.324)"/><path d="M0 0C0 3.06556-0.177585 3.24315-2.08663 3.55392L-2.93016 3.68711C-3.24315 3.90909-3.19653 4.66383-2.84136 4.79702-1.10991 4.70823 0.266378 4.66383 1.68706 4.66383 3.10774 4.66383 4.48624 4.70823 6.2177 4.79702 6.57287 4.66383 6.61505 3.90909 6.30649 3.68711L5.46074 3.55392C3.55392 3.24315 3.37634 3.06556 3.37634 0L3.37634-9.94477C3.37634-13.0103 3.55392-13.1879 5.46074-13.4987L6.30649-13.6319C6.61505-13.8539 6.57287-14.6086 6.2177-14.7418 4.52842-14.653 3.06334-14.6086 1.68706-14.6086 0.266378-14.6086-1.10991-14.653-2.84136-14.7418-3.19653-14.6086-3.24315-13.8539-2.93016-13.6319L-2.08663-13.4987C-0.177585-13.1879 0-13.0103 0-9.94477Z" fill="#656263" transform="matrix(1 0 0 -1.00649 362.977 686.136)"/><path d="M0 0C-1.33189 2.93016-1.50947 3.15436-2.57498 3.42073L-4.04006 3.7759C-4.30644 4.04006-4.35084 4.66383-3.99567 4.88581-2.84136 4.79702-1.37628 4.75262 4.92899e-16 4.75262 1.60049 4.75262 2.88798 4.79702 4.30644 4.88581 4.66383 4.70823 4.70823 3.99789 4.30644 3.7759L3.37634 3.64272C2.21981 3.46513 2.21981 2.88798 3.19653 0.710341L5.37417-4.21765C6.48408-6.74824 7.23881-8.3909 7.90476-9.85598 8.79268-7.99355 9.54742-6.12669 10.3932-4.26204 11.3255-2.21981 12.5664 0.845749 13.0103 2.13324 13.3211 3.06556 13.2767 3.37634 11.9448 3.64272L11.2367 3.7759C10.8349 4.04006 10.9681 4.61943 11.3255 4.88581 12.613 4.79702 13.7651 4.75262 14.9638 4.75262 16.3867 4.75262 17.4078 4.79702 18.1181 4.88581 18.5621 4.70823 18.6509 3.99789 18.3401 3.7759L17.097 3.50953C15.7651 3.24315 15.4965 2.84136 14.0781-0.177585L10.7017-7.4164C9.36984-10.2555 8.08234-13.4987 7.54959-14.9638 7.4164-15.097 7.23881-15.1414 7.01683-15.1414 6.83925-15.1414 6.66166-15.097 6.48408-14.9638 6.08451-13.8095 5.59615-12.3888 5.019-11.1457Z" fill="#656263" transform="matrix(1 0 0 -1.00649 378.334 686.225)"/><path d="M0 0C0 3.06556-0.177585 3.19653-1.86464 3.55392L-2.48619 3.68711C-2.79919 3.86248-2.75257 4.61943-2.3974 4.79702-1.10991 4.70823 0.266378 4.66383 1.73146 4.66383L8.03795 4.66383C9.99138 4.66383 11.7672 4.70823 12.1668 4.79702 12.2112 4.26426 12.4332 2.17542 12.6552 0.266378 12.4776-0.0887926 11.7672-0.133189 11.5009 0.177585 11.2345 1.33411 10.9681 1.90904 10.7017 2.31083 9.99138 3.37634 7.99355 3.37634 6.92582 3.37634L4.97238 3.37634C3.41851 3.37634 3.37634 3.33194 3.37634 1.95566L3.37634-2.97455C3.37634-3.77368 3.37634-3.86248 4.21765-3.86248L6.30649-3.86248C8.65728-3.86248 8.88148-3.50731 9.23665-2.1732L9.45863-1.33189C9.67839-1.02111 10.3466-1.06329 10.5685-1.42068 10.4797-2.70817 10.4797-3.50731 10.4797-4.52842 10.4797-5.63833 10.4797-6.43746 10.5685-7.72495 10.3466-8.08234 9.67839-8.12452 9.45863-7.81597L9.23665-6.97244C8.88148-5.63833 8.65728-5.28316 6.30649-5.28316L4.21765-5.28316C3.37634-5.28316 3.37634-5.41635 3.37634-6.30427L3.37634-9.50081C3.37634-10.8349 3.46513-12.2112 3.86248-12.6996 4.26204-13.1435 5.06118-13.3211 7.59398-13.3211 10.4353-13.3211 12.078-13.1879 13.3655-9.63621 13.6763-9.32322 14.3866-9.41201 14.5198-9.8138 14.2978-11.6784 13.6763-13.8983 13.1879-14.7418 10.391-14.653 8.03795-14.6086 5.63833-14.6086L1.73146-14.6086C0.310774-14.6086-1.06551-14.653-3.19653-14.7418-3.55392-14.6086-3.5961-13.8539-3.28533-13.6319L-2.08663-13.4987C-0.177585-13.2745 0-13.0103 0-9.94477Z" fill="#656263" transform="matrix(1 0 0 -1.00649 403.992 686.136)"/><path d="M0 0C0-1.10991 0.0443963-1.10991 2.21981-1.10991 5.10557-1.10991 6.61505 0.0466161 6.61505 3.10774 6.61505 5.32755 5.06118 7.28321 1.95344 7.28321 0.310774 7.28321 0 7.19442 0 6.04011ZM-3.37634 3.24315C-3.37634 6.12891-3.42073 6.88364-4.44185 7.01683L-5.68494 7.19442C-6.04011 7.23881-6.12891 8.17114-5.68494 8.30433-3.24315 8.48191-0.756957 8.5707 1.68706 8.5707 5.81591 8.5707 10.3022 7.90476 10.3022 3.24315 10.3022 0.401786 8.08234-0.885706 6.34867-1.50947 6.17108-1.68706 6.21548-1.95344 6.34867-2.17542 8.56848-5.90471 10.5219-8.08234 11.987-9.28104 12.7884-9.94477 13.6319-10.169 14.3422-10.2134 14.5198-10.391 14.5198-10.7905 14.3422-10.9237 13.9427-11.0547 13.3211-11.1457 12.4776-11.1457 9.8138-11.1457 8.21331-10.3022 6.25988-7.81597 5.14997-6.39529 3.95127-4.43963 3.01895-3.01895 2.66378-2.48619 1.95344-2.30861 1.2431-2.30861 0.0887926-2.30861 0-2.3974 0-3.01895L0-6.17108C0-9.23665 0.177585-9.45863 2.08441-9.72501L3.10774-9.85598C3.41851-10.0802 3.37412-10.8349 3.01895-10.9659 1.1543-10.8771-0.312994-10.8349-1.68928-10.8349-3.10774-10.8349-4.48624-10.8771-6.04011-10.9659-6.48408-10.8349-6.52847-10.0358-6.12891-9.85598L-5.46296-9.72501C-3.55392-9.32544-3.37634-9.23665-3.37634-6.17108Z" fill="#656263" transform="matrix(1 0 0 -1.00649 430.806 689.934)"/><path d="M0 0C-2.13102 1.10991-3.95127 2.84136-3.95127 5.32755-3.95127 8.56848-1.46508 10.8349 3.01895 10.8349 4.57504 10.8349 5.64055 10.4353 7.15002 10.169 7.50519 9.41201 7.81597 7.72495 7.77157 5.81591 7.63616 5.46074 6.83925 5.41635 6.61505 5.72712 6.25988 7.28099 5.10779 9.54742 2.48619 9.54742-0.133189 9.54742-1.10991 8.03573-1.10991 6.52625-1.10991 4.93021 0.0887926 3.95127 1.86464 3.01895L4.61943 1.59827C6.2177 0.799133 8.21553-1.06551 8.21553-4.04006 8.21553-7.50519 5.37417-9.68061 0.976718-9.68061-1.73146-9.68061-3.50731-8.74829-4.12885-8.30433-4.52842-7.68278-5.06118-6.08451-5.06118-3.73151-4.88359-3.28533-4.21765-3.24315-3.90687-3.64272-3.55392-5.23876-1.59827-8.39312 1.37628-8.39312 3.64272-8.39312 5.10779-7.23881 5.10779-5.19659 5.10779-3.77368 4.53064-2.30861 1.99783-1.02111Z" fill="#656263" transform="matrix(1 0 0 -1.00649 454.596 691.721)"/><path d="M0 0C0 3.06556-0.177585 3.24315-2.08663 3.55392L-2.93016 3.68711C-3.24315 3.90909-3.19653 4.66383-2.84136 4.79702-1.10991 4.70823 0.266378 4.66383 1.68706 4.66383 3.10774 4.66383 4.48624 4.70823 6.2177 4.79702 6.57287 4.66383 6.61505 3.90909 6.30649 3.68711L5.46074 3.55392C3.55392 3.24315 3.37634 3.06556 3.37634 0L3.37634-9.94477C3.37634-13.0103 3.55392-13.1879 5.46074-13.4987L6.30649-13.6319C6.61505-13.8539 6.57287-14.6086 6.2177-14.7418 4.52842-14.653 3.06334-14.6086 1.68706-14.6086 0.266378-14.6086-1.10991-14.653-2.84136-14.7418-3.19653-14.6086-3.24315-13.8539-2.93016-13.6319L-2.08663-13.4987C-0.177585-13.1879 0-13.0103 0-9.94477Z" fill="#656263" transform="matrix(1 0 0 -1.00649 472.707 686.136)"/><path d="M0 0C0 1.1543-0.0466161 1.1543-0.932322 1.1543L-2.30861 1.1543C-5.019 1.1543-6.17108 0.885706-7.23881-2.17542-7.68278-2.44402-8.17114-2.31083-8.34872-1.95566-7.86036-0.0466161-7.36978 2.1732-7.15002 3.28311-6.97244 3.46291-6.52625 3.46291-6.34867 3.28311-6.30649 2.3974-5.68494 2.4418-3.90909 2.4418L8.43751 2.4418C10.0802 2.4418 10.391 2.48619 10.7461 3.28311 11.0569 3.46291 11.4121 3.37412 11.5453 3.15214 11.1901 1.99561 11.0125-0.35517 11.1013-2.04445 10.9237-2.39962 10.169-2.44402 9.99138-2.08663 9.68061 0.796913 8.52631 1.1543 5.86253 1.1543L4.35084 1.1543C3.50731 1.1543 3.37634 1.1543 3.37634 0L3.37634-12.1668C3.37634-15.2324 3.55392-15.4965 5.46074-15.7207L6.66166-15.8539C6.97244-16.0759 6.92582-16.8306 6.57287-16.9638 4.75262-16.875 3.06334-16.8306 1.68706-16.8306 0.266378-16.8306-1.33411-16.875-3.19653-16.9638-3.55392-16.8306-3.5961-16.0759-3.28533-15.8539L-2.08663-15.7207C-0.177585-15.4965 0-15.2324 0-12.1668Z" fill="#656263" transform="matrix(1 0 0 -1.00649 493.083 683.899)"/><path d="M0 0C0 3.06556-0.177585 3.19653-1.86464 3.55392L-2.48619 3.68711C-2.79919 3.86248-2.75257 4.61943-2.3974 4.79702-1.10991 4.70823 0.266378 4.66383 1.73146 4.66383L8.03795 4.66383C9.99138 4.66383 11.7672 4.70823 12.1668 4.79702 12.2112 4.26426 12.4332 2.17542 12.6552 0.266378 12.4776-0.0887926 11.7672-0.133189 11.5009 0.177585 11.2345 1.33411 10.9681 1.90904 10.7017 2.31083 9.99138 3.37634 7.99355 3.37634 6.92582 3.37634L4.97238 3.37634C3.41851 3.37634 3.37634 3.33194 3.37634 1.95566L3.37634-2.97455C3.37634-3.77368 3.37634-3.86248 4.21765-3.86248L6.30649-3.86248C8.65728-3.86248 8.88148-3.50731 9.23665-2.1732L9.45863-1.33189C9.67839-1.02111 10.3466-1.06329 10.5685-1.42068 10.4797-2.70817 10.4797-3.50731 10.4797-4.52842 10.4797-5.63833 10.4797-6.43746 10.5685-7.72495 10.3466-8.08234 9.67839-8.12452 9.45863-7.81597L9.23665-6.97244C8.88148-5.63833 8.65728-5.28316 6.30649-5.28316L4.21765-5.28316C3.37634-5.28316 3.37634-5.41635 3.37634-6.30427L3.37634-9.50081C3.37634-10.8349 3.46513-12.2112 3.86248-12.6996 4.26204-13.1435 5.06118-13.3211 7.59398-13.3211 10.4353-13.3211 12.078-13.1879 13.3655-9.63621 13.6763-9.32322 14.3866-9.41201 14.5198-9.8138 14.2978-11.6784 13.6763-13.8983 13.1879-14.7418 10.391-14.653 8.03795-14.6086 5.63833-14.6086L1.73146-14.6086C0.310774-14.6086-1.06551-14.653-3.19653-14.7418-3.55392-14.6086-3.5961-13.8539-3.28533-13.6319L-2.08663-13.4987C-0.177585-13.2745 0-13.0103 0-9.94477Z" fill="#656263" transform="matrix(1 0 0 -1.00649 513.278 686.136)"/><path d="M0 0C0 1.1543-0.0466161 1.1543-0.932322 1.1543L-2.30861 1.1543C-5.019 1.1543-6.17108 0.885706-7.23881-2.17542-7.68278-2.44402-8.17114-2.31083-8.34872-1.95566-7.86036-0.0466161-7.372 2.1732-7.15002 3.28311-6.97244 3.46291-6.52625 3.46291-6.34867 3.28311-6.30649 2.3974-5.68494 2.4418-3.90909 2.4418L8.43751 2.4418C10.0802 2.4418 10.391 2.48619 10.7461 3.28311 11.0569 3.46291 11.4121 3.37412 11.5453 3.15214 11.1901 1.99561 11.0125-0.35517 11.1013-2.04445 10.9237-2.39962 10.169-2.44402 9.99138-2.08663 9.67839 0.796913 8.52631 1.1543 5.86253 1.1543L4.35084 1.1543C3.50731 1.1543 3.37634 1.1543 3.37634 0L3.37634-12.1668C3.37634-15.2324 3.55392-15.4965 5.46074-15.7207L6.66166-15.8539C6.97244-16.0759 6.92582-16.8306 6.57287-16.9638 4.75262-16.875 3.06334-16.8306 1.68706-16.8306 0.266378-16.8306-1.33411-16.875-3.19653-16.9638-3.55392-16.8306-3.5961-16.0759-3.28533-15.8539L-2.08663-15.7207C-0.177585-15.4965 0-15.2324 0-12.1668Z" fill="#656263" transform="matrix(1 0 0 -1.00649 540.846 683.899)"/></g></svg>