<?xml version="1.0" encoding="UTF-8" standalone="no"?>
<!-- Created with Inkscape (http://www.inkscape.org/) -->

<svg
   version="1.1"
   id="svg2"
   width="1342.7733"
   height="1281.2533"
   viewBox="0 0 1342.7733 1281.2533"
   sodipodi:docname="nordita_logo_textbelow_colour_star_black_text_CMYK.eps"
   xmlns:inkscape="http://www.inkscape.org/namespaces/inkscape"
   xmlns:sodipodi="http://sodipodi.sourceforge.net/DTD/sodipodi-0.dtd"
   xmlns="http://www.w3.org/2000/svg"
   xmlns:svg="http://www.w3.org/2000/svg">
  <defs
     id="defs6" />
  <sodipodi:namedview
     id="namedview4"
     pagecolor="#ffffff"
     bordercolor="#000000"
     borderopacity="0.25"
     inkscape:showpageshadow="2"
     inkscape:pageopacity="0.0"
     inkscape:pagecheckerboard="0"
     inkscape:deskcolor="#d1d1d1" />
  <g
     id="g8"
     inkscape:groupmode="layer"
     inkscape:label="ink_ext_XXXXXX"
     transform="matrix(1.3333333,0,0,-1.3333333,0,1281.2533)">
    <g
       id="g10"
       transform="scale(0.1)">
      <path
         d="m 6105.23,6086.14 c 140.84,-245.8 268.45,-490.91 387.2,-725.41 181.08,-357.21 460.92,-1185.69 519.67,-1686.71 -679.21,16.42 -1359.77,149.85 -2204.6,388.19 -123.65,34.81 -242.75,71.16 -358.18,108.48"
         style="fill:#fddd04;fill-opacity:1;fill-rule:nonzero;stroke:none"
         id="path12" />
      <path
         d="m 2361.87,5136.77 c 345.6,-1721.86 577.98,-2058.52 577.98,-2058.52 0,0 692.57,391.14 1509.47,1092.44"
         style="fill:#15569b;fill-opacity:1;fill-rule:nonzero;stroke:none"
         id="path14" />
      <path
         d="M 2104.56,7444.32 C 1816.66,7242.7 1334.33,6882.66 772.102,6314.9 c 0,0 632.798,-604.28 1394.118,-1061.65 65.14,-39.15 130.3,-77.97 195.65,-116.48"
         style="fill:#ee293d;fill-opacity:1;fill-rule:nonzero;stroke:none"
         id="path16" />
      <path
         d="m 2104.56,7444.32 c -1.46,139.55 0.11,278.64 5.36,415.96 10.77,283.1 44.61,1170.36 183.52,1749.16 0,0 841.76,-378.08 1827.05,-1197.43"
         style="fill:#173a79;fill-opacity:1;fill-rule:nonzero;stroke:none"
         id="path18" />
      <path
         d="m 6105.23,6086.14 c 114.92,204.34 224.34,428.45 323.8,674.86 386.99,958.73 543.62,2004 543.62,2004 0,0 -1517.64,22.95 -2619.68,-285.41 -79.9,-22.38 -157.29,-44.9 -232.48,-67.58"
         style="fill:#ee2922;fill-opacity:1;fill-rule:nonzero;stroke:none"
         id="path20" />
      <path
         d="m 2104.56,7444.32 c 57.84,40.55 108,74.8 149.18,102.95 547.04,373.44 1084.82,629.11 1866.75,864.74 453.26,-376.91 936.91,-847.14 1382.9,-1417.04 227.37,-290.39 425.01,-600.13 601.84,-908.83 -259.49,-461.44 -547.56,-822.09 -815.3,-1110.12 -279.98,-301.17 -567.24,-570.63 -840.61,-805.33 -838.4,271.05 -1473.24,604.22 -2087.45,966.08 -12.24,61.08 -24.62,123.63 -37.18,188.32 -110.15,567.88 -212.13,1350.05 -220.13,2119.23"
         style="fill:#ffffff;fill-opacity:1;fill-rule:nonzero;stroke:none"
         id="path22" />
      <path
         d="M 1293.16,0 282.5,1340.4 V 349.02 c 0,-82.18 4.023,-136.25 12.148,-162.219 8.086,-26.02 31.133,-49.883 69.18,-71.641 C 401.875,93.3594 458.906,82.5 535,82.5 V 35 H 0 v 47.5 c 68.2031,4.918 120.273,17.3789 156.133,37.418 35.859,20 57.148,41.602 63.828,64.812 6.68,23.2 10.039,78.008 10.039,164.489 v 757.971 c 0,109.62 -5.117,183.06 -15.352,220.32 -10.234,37.23 -26.445,61.13 -48.632,71.68 -22.188,10.55 -71.7191,15.82 -148.516,15.82 v 47.5 H 440.313 L 1282.5,345.551 v 854.499 c 0,63.2 -6.48,107.46 -19.41,132.77 -12.97,25.28 -39.38,45.28 -79.26,60.04 -39.92,14.77 -87.85,22.15 -143.83,22.15 v 47.5 h 515 v -47.5 c -59.53,-4.92 -106.41,-16.56 -140.62,-34.84 -34.26,-18.28 -56.06,-40.28 -65.4,-65.94 -9.33,-25.7 -13.98,-69.14 -13.98,-130.31 V 0 h -41.84"
         style="fill:#231f20;fill-opacity:1;fill-rule:nonzero;stroke:none"
         id="path24" />
      <path
         d="m 1912.25,750.859 c 0,-230.777 45.74,-404.019 137.3,-519.757 91.52,-115.75 228.83,-173.602 411.91,-173.602 160.63,0 287.58,57.852 380.86,173.602 93.29,115.738 139.93,288.277 139.93,517.648 0,222.969 -45.98,393.96 -137.86,512.86 -91.87,118.91 -225.15,178.4 -399.76,178.4 -171.88,0 -303.56,-58.05 -395.08,-174.14 -91.56,-116.09 -137.3,-287.78 -137.3,-515.011 z m -242.5,7.379 c 0,220.711 73.71,397.872 221.21,531.422 147.5,133.55 331.52,200.35 552.07,200.35 222.65,0 408.59,-66.09 557.85,-198.24 149.22,-132.15 223.87,-312.469 223.87,-540.911 0,-221.441 -71.49,-400.699 -214.42,-537.769 C 2867.4,76.0195 2679.36,7.5 2446.19,7.5 c -226.87,0 -412.97,68.5195 -558.36,205.59 -145.39,137.07 -218.08,318.789 -218.08,545.148"
         style="fill:#231f20;fill-opacity:1;fill-rule:nonzero;stroke:none"
         id="path26" />
      <path
         d="m 3804.02,772.5 c 52.62,1.41 106.99,3.52 163.12,6.332 56.1,2.809 104.85,10.586 146.25,23.277 41.41,12.7 74.89,31.211 100.51,55.551 25.63,24.289 45.78,56.211 60.51,95.699 14.73,39.45 22.11,88.131 22.11,145.981 0,100.83 -25.08,181.57 -75.24,242.19 -50.15,60.63 -159.45,90.98 -327.81,90.98 -25.97,0 -55.78,-1.4 -89.45,-4.22 z M 4881.52,35 h -383.71 c -67.97,47.1094 -172.03,171.719 -312.19,373.832 -44.88,64.527 -91.48,126.477 -139.84,185.777 -48.36,59.301 -81.64,95.43 -99.85,108.403 -18.24,12.968 -46.64,19.488 -85.15,19.488 h -56.76 V 405.668 c 0,-112.309 2.62,-185.816 7.89,-220.547 5.27,-34.769 19.34,-60.551 42.19,-77.383 22.85,-16.8396 66.64,-25.238 131.36,-25.238 h 68.56 V 35 h -685 v 47.5 h 46.33 c 61.09,0 103.4,7.6992 126.91,23.168 23.52,15.461 38.44,39.531 44.77,72.223 6.32,32.66 9.49,108.75 9.49,228.238 v 701.061 c 0,113.84 -3.2,187.27 -9.53,220.32 -6.33,33.01 -20.43,55.86 -42.23,68.52 -21.8,12.65 -68.94,18.98 -141.44,18.98 h -24.3 v 47.5 l 204.41,10.51 c 136.25,6.33 244.46,9.49 324.57,9.49 136.25,0 247.07,-12.65 332.42,-37.93 85.36,-25.27 154.38,-66.68 207.08,-124.22 52.65,-57.58 79.02,-126.33 79.02,-206.34 0,-93.35 -34.38,-173.04 -103.13,-239.02 -68.75,-65.98 -169.72,-107.031 -302.97,-123.16 60.32,-28.32 156.53,-132.309 288.64,-311.988 107.65,-145.403 192.3,-240.633 253.94,-285.633 61.64,-45 134.46,-68.9104 218.52,-71.719 V 35"
         style="fill:#231f20;fill-opacity:1;fill-rule:nonzero;stroke:none"
         id="path28" />
      <path
         d="M 5360.95,1424.74 V 468.988 c 0,-141.367 2.62,-232.468 7.85,-273.25 5.24,-40.777 21.02,-69.449 47.27,-85.968 26.25,-16.5317 81.72,-24.77 166.44,-24.77 123.91,0 225.75,17.031 305.55,51.168 79.81,34.102 146.49,101.25 200.04,201.492 53.56,100.192 80.35,228.008 80.35,383.442 0,120.929 -15.58,228.898 -46.72,323.858 -31.17,94.93 -75.78,172.12 -133.9,231.57 -58.13,59.42 -122.5,99.85 -193.21,121.29 -70.7,21.45 -161.36,32.19 -271.95,32.19 -53.2,0 -107.11,-1.76 -161.72,-5.27 z m -442.5,27.77 234.69,12.11 c 195.7,10.24 327.62,15.39 395.66,15.39 211.88,0 377.07,-32.34 495.67,-97.03 118.55,-64.69 206.76,-152.42 264.65,-263.17 57.89,-110.79 86.83,-238.56 86.83,-383.4 0,-104.769 -15.82,-200.59 -47.42,-287.422 -31.6,-86.879 -74.96,-158.949 -130.08,-216.25 C 6163.33,175.43 6099.43,131.84 6026.77,101.949 5954.12,72.0703 5885.13,53.4414 5819.86,46.0586 5754.55,38.668 5662.59,35 5543.92,35 h -632.97 v 47.5 h 59.3 c 61.41,0 103.94,7.7383 127.62,23.199 23.63,15.469 38.79,39.571 45.5,72.313 6.72,32.726 10.08,108.906 10.08,228.508 v 690.28 c 0,113.99 -3.36,187.66 -10.04,221.1 -6.68,33.44 -20.74,56.29 -42.15,68.63 -21.4,12.31 -68.32,18.48 -140.66,18.48 h -42.15 v 47.5"
         style="fill:#231f20;fill-opacity:1;fill-rule:nonzero;stroke:none"
         id="path30" />
      <path
         d="m 6566.93,1415.01 v 47.5 h 647.5 v -47.5 h -30.08 c -69.22,0 -114.53,-5.82 -135.98,-17.42 -21.44,-11.6 -35.78,-33.2 -43.04,-64.81 -7.27,-31.64 -10.9,-106.83 -10.9,-225.59 V 406.129 c 0,-112.461 2.58,-186.09 7.77,-220.859 5.16,-34.801 18.99,-60.622 41.49,-77.5 22.5,-16.8716 65.54,-25.27 129.22,-25.27 h 41.52 V 35 h -647.5 v 47.5 h 41.52 c 60.16,0 101.84,7.6992 125.04,23.168 23.17,15.461 37.85,39.531 44.1,72.223 6.21,32.66 9.34,108.75 9.34,228.238 v 701.061 c 0,113.84 -3.13,187.27 -9.34,220.32 -6.25,33.01 -20.08,55.86 -41.52,68.52 -21.45,12.65 -67.81,18.98 -139.06,18.98 h -30.08"
         style="fill:#231f20;fill-opacity:1;fill-rule:nonzero;stroke:none"
         id="path32" />
      <path
         d="m 7373.53,1117.5 h -47.5 l 7.23,345.01 h 1387.93 l 7.34,-345.01 h -45 c -16.17,94.11 -38.32,162.08 -66.45,203.88 -28.12,41.8 -58.32,67.42 -90.66,76.91 -32.34,9.46 -87.54,14.22 -165.55,14.22 H 8131.03 V 405.551 c 0,-111.563 2.62,-184.852 7.85,-219.922 5.24,-35.078 19.42,-61.059 42.54,-77.891 23.13,-16.8396 66.52,-25.238 130.27,-25.238 h 69.34 V 35 h -712.5 v 47.5 h 73.44 c 60.86,0 103.04,7.6992 126.48,23.129 23.44,15.43 38.48,39.453 45.12,72.07 6.64,32.61 9.96,108.551 9.96,227.852 V 1412.51 h -211.8 c -92.03,0 -153.82,-4.41 -185.43,-13.16 -31.64,-8.79 -61.32,-35.32 -89.06,-79.57 -27.73,-44.26 -48.98,-111.68 -63.71,-202.28"
         style="fill:#231f20;fill-opacity:1;fill-rule:nonzero;stroke:none"
         id="path34" />
      <path
         d="M 9508.82,610 9257.07,1217.59 9005.7,610 Z m 19.69,-47.5 h -542.42 l -37.77,-90.941 c -54.81,-131.789 -82.19,-217.809 -82.19,-257.957 0,-43.012 14.57,-75.633 43.75,-97.821 C 8939.06,93.6016 8976.87,82.5 9023.32,82.5 V 35 h -427.5 v 47.5 c 63.12,9.8516 110.11,32.23 140.97,67.109 30.86,34.84 68.01,108.321 111.53,220.352 4.45,10.551 21.6,51.371 51.48,122.418 l 416.29,990.131 h 42.3 L 9835.54,348.832 9900.85,199.34 c 14.61,-33.988 34.22,-60.738 58.91,-80.199 24.69,-19.4926 61.64,-31.723 111.04,-36.641 V 35 h -559.98 v 47.5 c 68.82,0 115.39,5.1211 139.6,15.3516 24.22,10.2384 36.37,30.5074 36.37,60.8164 0,15.512 -16.17,61.723 -48.47,138.641 L 9528.51,562.5"
         style="fill:#231f20;fill-opacity:1;fill-rule:nonzero;stroke:none"
         id="path36" />
    </g>
  </g>
</svg>
